<?xml version="1.0" encoding="UTF-8"?>
<svg version="1.1" xmlns="http://www.w3.org/2000/svg" width="596" height="435">
<path d="M0 0 C1.53333984 0.00966797 1.53333984 0.00966797 3.09765625 0.01953125 C5.55886346 0.16510472 7.57087195 0.57266467 9.9375 1.1875 C11.35284778 1.25206879 12.77087689 1.27361039 14.1875 1.25 C15.425 1.229375 16.6625 1.20875 17.9375 1.1875 C18.2675 2.1775 18.5975 3.1675 18.9375 4.1875 C20.05125 4.084375 21.165 3.98125 22.3125 3.875 C28.74911285 3.90917671 34.08595004 6.7521526 38.91796875 10.87890625 C46.42617329 18.81804527 52.13146868 30.31835565 52.24389648 41.30957031 C52.25988388 42.49810608 52.27587128 43.68664185 52.29234314 44.91119385 C52.30038719 46.81913727 52.30038719 46.81913727 52.30859375 48.765625 C52.31757582 50.10072929 52.32669791 51.43583264 52.33595276 52.77093506 C52.35239701 55.56492546 52.36013416 58.35879673 52.36303711 61.15283203 C52.3684085 64.70798358 52.40605409 68.2619922 52.45178127 71.81682205 C52.48174058 74.57434018 52.48876474 77.33158968 52.48976326 80.08925629 C52.49593725 82.02895733 52.52530905 83.96854075 52.55528259 85.90802002 C52.5026401 96.31178234 49.68690907 103.54356535 42.8125 111.375 C40.46580487 114.17348878 38.54626739 116.57785409 37.25 120 C35.75406462 123.63298593 33.84559283 125.59379558 30.9375 128.1875 C31.16566406 128.76757812 31.39382813 129.34765625 31.62890625 129.9453125 C34.06122709 136.55511711 34.06122709 136.55511711 33.375 140.0625 C32.77000152 144.3839177 34.29418204 147.28770314 35.87890625 151.28515625 C37.4148105 155.49614096 38.21008215 159.77513646 38.9375 164.1875 C41.66044063 164.1875 43.09679847 163.05544245 45.4375 161.6875 C49.71527778 159.1875 49.71527778 159.1875 51.9375 159.1875 C51.9375 175.0275 51.9375 190.8675 51.9375 207.1875 C48.37651037 208.96799481 44.08396678 208.8891315 40.14257812 209.26171875 C35.23083909 209.80288141 31.3970892 211.04829994 26.9375 213.1875 C26.98390625 213.82816406 27.0303125 214.46882812 27.078125 215.12890625 C27.3304415 221.17549101 27.02241147 225.53523971 22.9375 230.1875 C19.25715312 233.52092894 15.88836764 236.23711023 10.9375 237.1875 C11.02 238.404375 11.1025 239.62125 11.1875 240.875 C11.1875 244.17668258 10.95465231 245.15870863 9.1875 248.125 C5.34272518 251.64937692 1.83429754 251.21183641 -3.25439453 251.18766785 C-15.30584622 251.28357701 -23.72121005 255.03937888 -34.0625 260.875 C-35.56724735 261.69011212 -37.07375998 262.50197396 -38.58203125 263.31054688 C-41.36676397 264.81084583 -44.14079701 266.32732569 -46.90234375 267.86987305 C-47.56683029 268.23014587 -48.23131683 268.5904187 -48.91593933 268.96160889 C-51.13377981 270.1930636 -51.13377981 270.1930636 -53.42842102 271.78204346 C-61.68904597 277.02201853 -69.24983387 276.97236304 -78.66796875 276.7734375 C-80.2440681 276.76222163 -81.82018862 276.75369277 -83.39631653 276.74771118 C-87.50838834 276.72499999 -91.61915168 276.66623603 -95.73071289 276.5994873 C-99.94073799 276.53767717 -104.15097831 276.51061428 -108.36132812 276.48046875 C-116.59571418 276.41646956 -124.82879266 276.31109593 -133.0625 276.1875 C-135.3725 270.2475 -137.6825 264.3075 -140.0625 258.1875 C-142.75067871 258.32381836 -142.75067871 258.32381836 -145.49316406 258.46289062 C-151.54364993 258.76802937 -157.59443524 259.06654126 -163.64545059 259.36095428 C-167.29930663 259.5389593 -170.95301094 259.71928739 -174.60644531 259.90576172 C-183.73658919 260.37030236 -192.86708863 260.77520129 -202.00296021 261.10919189 C-204.06213206 261.18748601 -206.12072842 261.27530462 -208.17944336 261.36474609 C-212.05104432 261.52855739 -215.92285404 261.6275155 -219.796875 261.71875 C-220.95173401 261.77172241 -222.10659302 261.82469482 -223.29644775 261.87927246 C-230.85194409 261.98312124 -230.85194409 261.98312124 -234.11633301 259.83764648 C-237.71898969 256.02632939 -239.00108813 252.47249117 -239.0625 247.1875 C-238.79194882 244.20831601 -238.29537568 241.30430046 -237.734375 238.3671875 C-237.58470276 237.54550079 -237.43503052 236.72381409 -237.28082275 235.87722778 C-236.96329248 234.15005926 -236.64026079 232.42389398 -236.31201172 230.69873047 C-235.8131912 228.06614789 -235.33710032 225.43015241 -234.86328125 222.79296875 C-234.55083003 221.10912378 -234.23707215 219.42552063 -233.921875 217.7421875 C-233.78110535 216.95874969 -233.64033569 216.17531189 -233.49530029 215.36813354 C-232.4083091 209.76547168 -230.91475729 205.85453156 -226.5625 201.9375 C-223.2503282 200.2814141 -221.60959099 199.88547574 -218.03320312 199.609375 C-217.05617432 199.53364258 -216.07914551 199.45791016 -215.07250977 199.37988281 C-210.39389165 199.08085198 -205.71595655 198.86416774 -201.03125 198.6875 C-198.98437172 198.60424723 -196.93749681 198.52091157 -194.890625 198.4375 C-191.70643623 198.31100212 -188.52219952 198.18593778 -185.33789062 198.0625 C-182.23551564 197.94120984 -179.13338959 197.81464824 -176.03125 197.6875 C-175.07504761 197.65205078 -174.11884521 197.61660156 -173.13366699 197.58007812 C-171.80583191 197.5249707 -171.80583191 197.5249707 -170.45117188 197.46875 C-169.6738269 197.43845703 -168.89648193 197.40816406 -168.09558105 197.37695312 C-165.86057824 197.24621593 -165.86057824 197.24621593 -163.0625 196.1875 C-163.39572266 195.31947754 -163.72894531 194.45145508 -164.07226562 193.55712891 C-165.30490224 190.34149892 -166.5345624 187.12476394 -167.76220703 183.90722656 C-168.2945421 182.51386632 -168.82806577 181.1209596 -169.36279297 179.72851562 C-170.13039756 177.72904094 -170.89373788 175.72798383 -171.65625 173.7265625 C-172.11708984 172.52209473 -172.57792969 171.31762695 -173.05273438 170.07666016 C-174.0625 167.1875 -174.0625 167.1875 -174.0625 165.1875 C-175.34125 165.331875 -176.62 165.47625 -177.9375 165.625 C-179.64580849 165.81272621 -181.35414325 166.00021348 -183.0625 166.1875 C-184.32126953 166.33058594 -184.32126953 166.33058594 -185.60546875 166.4765625 C-196.47320075 167.65600628 -206.22725593 167.894853 -215.5625 161.375 C-220.07929359 157.63503084 -223.28593433 153.08970286 -226.52539062 148.25073242 C-230.00458913 143.05573515 -233.9168438 138.80851733 -239.0625 135.1875 C-226.32644939 129.4437909 -211.21041699 129.1910354 -198.01953125 133.8984375 C-193.17937257 136.0084142 -188.58558017 138.46821332 -184.0625 141.1875 C-184.80306641 139.36025391 -184.80306641 139.36025391 -185.55859375 137.49609375 C-186.20613179 135.87255636 -186.85324472 134.24884937 -187.5 132.625 C-187.82548828 131.82513672 -188.15097656 131.02527344 -188.48632812 130.20117188 C-190.85042457 124.23000045 -192.87203871 118.94945559 -191 112.5625 C-186.85946717 105.34995895 -180.62115295 102.82495113 -173.1875 99.875 C-172.30835938 99.51599609 -171.42921875 99.15699219 -170.5234375 98.78710938 C-168.37353089 97.91078875 -166.22012174 97.04460677 -164.0625 96.1875 C-164.5575 92.2275 -164.5575 92.2275 -165.0625 88.1875 C-161.3982646 86.61635366 -157.73206379 85.04989884 -154.06396484 83.48779297 C-152.81601727 82.95555615 -151.5686174 82.42203322 -150.32177734 81.88720703 C-148.53106372 81.11935131 -146.73821657 80.35647715 -144.9453125 79.59375 C-143.86652832 79.13291016 -142.78774414 78.67207031 -141.67626953 78.19726562 C-139.0625 77.1875 -139.0625 77.1875 -137.0625 77.1875 C-137.5575 76.32125 -138.0525 75.455 -138.5625 74.5625 C-140.15507429 70.97920785 -140.55526851 69.04751998 -140.0625 65.1875 C-138.33389397 61.38456672 -136.8971152 59.74207373 -133.0625 58.1875 C-128.8845993 57.612011 -125.17511071 57.74245572 -121.25 59.3125 C-118.56992508 61.60970708 -116.97088863 64.23489872 -115.0625 67.1875 C-114.42223877 66.91486328 -113.78197754 66.64222656 -113.12231445 66.36132812 C-110.21036147 65.12747209 -107.29283192 63.90738453 -104.375 62.6875 C-103.36759766 62.25824219 -102.36019531 61.82898438 -101.32226562 61.38671875 C-100.34580078 60.98066406 -99.36933594 60.57460937 -98.36328125 60.15625 C-97.46778564 59.77919922 -96.57229004 59.40214844 -95.6496582 59.01367188 C-92.85896066 58.12250263 -90.96293547 57.72828692 -88.0625 58.1875 C-87.0725 59.5075 -86.0825 60.8275 -85.0625 62.1875 C-79.7825 59.8775 -74.5025 57.5675 -69.0625 55.1875 C-69.10375 53.785 -69.145 52.3825 -69.1875 50.9375 C-69.148905 37.29416876 -66.04976109 26.34112445 -56.4375 16.5 C-55.65375 15.736875 -54.87 14.97375 -54.0625 14.1875 C-53.4025 13.5275 -52.7425 12.8675 -52.0625 12.1875 C-49.03308476 11.35495567 -45.98280588 10.71976431 -42.91015625 10.06640625 C-39.97140584 9.15938452 -39.05699903 8.40491363 -37.0625 6.1875 C-32.70660084 4.62595125 -28.67862384 3.46943629 -24.0625 4.1875 C-20.84816527 7.48870865 -19.15957194 9.90129679 -18.8125 14.5 C-19.20795455 20.33295455 -19.20795455 20.33295455 -22.0625 23.1875 C-28.0212664 25.0477978 -33.86997286 25.1875 -40.0625 25.1875 C-41.77575061 25.53935242 -43.48400401 25.91610476 -45.1875 26.3125 C-49.11318373 27.17423545 -51.47989911 27.33706054 -55.0625 25.1875 C-59.89091 31.947274 -61.35162379 37.9777957 -62.1875 46.0625 C-62.27386719 46.84625 -62.36023438 47.63 -62.44921875 48.4375 C-62.6595149 50.35353159 -62.86182744 52.2704366 -63.0625 54.1875 C-62.134375 54.455625 -61.20625 54.72375 -60.25 55 C-55.14171938 56.90308494 -53.59596294 59.74276493 -51.1640625 64.5078125 C-50.60799316 65.58957764 -50.05192383 66.67134277 -49.47900391 67.78588867 C-48.88780762 68.94967041 -48.29661133 70.11345215 -47.6875 71.3125 C-47.07141433 72.51504435 -46.45470723 73.71727051 -45.83740234 74.91918945 C-44.55738602 77.41230004 -43.2799017 79.90668483 -42.00390625 82.40185547 C-38.9282578 88.40837731 -35.80565998 94.39046775 -32.6875 100.375 C-31.59622966 102.47259148 -30.50507179 104.57024148 -29.4140625 106.66796875 C-28.63023247 108.17449173 -27.84638848 109.68100744 -27.0625 111.1875 C-26.4025 111.1875 -25.7425 111.1875 -25.0625 111.1875 C-20.2441152 106.10313218 -16.36628573 100.81088398 -14.0625 94.1875 C-14.79855469 94.23390625 -15.53460937 94.2803125 -16.29296875 94.328125 C-24.22891176 94.62166054 -24.22891176 94.62166054 -28.0625 92.625 C-33.35433367 86.17557771 -33.70999741 80.28386925 -33.546875 72.0625 C-32.66495418 65.00713346 -29.8970692 58.75744961 -24.59375 53.94921875 C-21.16124862 51.56024017 -18.27030307 50.30373765 -14.0625 50.1875 C-8.78032859 51.65423725 -4.92931495 54.48592349 -2.0625 59.1875 C-1.3125 62 -1.3125 62 -1.0625 64.1875 C-0.4025 63.8575 0.2575 63.5275 0.9375 63.1875 C3.88577837 62.78546204 6.01895963 62.63807285 8.62890625 64.19921875 C12.17841641 67.04737991 13.69712548 69.0619025 14.2109375 73.60546875 C14.42964815 79.56954005 13.97920768 83.69216474 10.43359375 88.59375 C8.19744107 90.97586565 6.01103954 92.14118867 2.9375 93.1875 C1.6175 93.1875 0.2975 93.1875 -1.0625 93.1875 C-1.16175781 94.05503906 -1.26101563 94.92257813 -1.36328125 95.81640625 C-3.14047213 104.38465054 -9.19901346 111.89497786 -15.0625 118.1875 C-9.30168159 119.4857126 -3.97510345 120.44456972 1.9375 120.1875 C2.2675 119.5275 2.5975 118.8675 2.9375 118.1875 C4.61903936 117.76024094 6.30468727 117.34484938 8.00439453 116.99682617 C18.80026735 114.78569818 30.98794195 110.45547519 37.77734375 101.1953125 C49.35200324 81.16374691 50.07491965 58.27589846 44.9375 36.1875 C42.17076553 26.95491722 37.61509114 17.38270933 28.8125 12.625 C25.77733202 11.31999587 23.27172679 10.77072165 19.9375 11.1875 C19.6075 11.8475 19.2775 12.5075 18.9375 13.1875 C16.67792735 14.03207608 14.388198 14.65640506 12.06640625 15.30859375 C9.5949796 16.09741866 9.5949796 16.09741866 7.9375 19.1875 C3.32628625 20.91209394 -2.1974825 21.85091148 -7.0625 21.1875 C-9.76240662 19.38756226 -11.6043865 18.103727 -13.0625 15.1875 C-13.23046875 13.1640625 -13.23046875 13.1640625 -13.25 10.8125 C-13.26417969 10.04164063 -13.27835938 9.27078125 -13.29296875 8.4765625 C-13.02703415 5.83524601 -12.60087335 4.3587777 -11.0625 2.1875 C-7.36752031 0.15044163 -4.17019084 -0.05799254 0 0 Z M-16.0625 132.1875 C-14.78235322 135.48024117 -13.39038685 138.65993663 -11.8125 141.8203125 C-11.37357422 142.70017822 -10.93464844 143.58004395 -10.48242188 144.48657227 C-9.77956055 145.88540649 -9.77956055 145.88540649 -9.0625 147.3125 C-8.57845703 148.27792725 -8.09441406 149.24335449 -7.59570312 150.23803711 C-4.30770677 156.77180751 -0.96527085 163.27528325 2.4375 169.75 C2.84613281 170.52811035 3.25476563 171.3062207 3.67578125 172.10791016 C7.245458 179.53480669 7.245458 179.53480669 12.9375 185.1875 C13.06125 186.0125 13.185 186.8375 13.3125 187.6875 C14.20324226 192.67565665 16.56082995 196.7498799 18.9375 201.1875 C20.76512276 197.86381436 21.77695527 194.51652299 22.8125 190.875 C23.92860731 187.09869708 24.93133707 183.85723342 27.1875 180.625 C31.80214096 171.5605267 28.45838521 159.59673 25.9375 150.1875 C25.0837036 147.7125014 24.12114179 145.54294716 22.9375 143.1875 C20.36017086 142.13582473 20.36017086 142.13582473 17.9375 142.1875 C17.628125 141.23875 17.31875 140.29 17 139.3125 C16.06355258 136.32669592 16.06355258 136.32669592 14.9375 134.1875 C12.62884374 133.71684948 12.62884374 133.71684948 9.8359375 133.5546875 C8.78792969 133.47089844 7.73992187 133.38710938 6.66015625 133.30078125 C5.55542969 133.22214844 4.45070313 133.14351562 3.3125 133.0625 C2.23097656 132.97613281 1.14945313 132.88976562 0.03515625 132.80078125 C-5.344809 132.38693777 -10.6669686 132.07928017 -16.0625 132.1875 Z " fill="#31629B" transform="translate(544.0625,158.8125)"/>
<path d="M0 0 C2.68007492 2.29720708 4.27911137 4.92239872 6.1875 7.875 C6.82776123 7.60236328 7.46802246 7.32972656 8.12768555 7.04882812 C11.03963853 5.81497209 13.95716808 4.59488453 16.875 3.375 C17.88240234 2.94574219 18.88980469 2.51648438 19.92773438 2.07421875 C20.90419922 1.66816406 21.88066406 1.26210937 22.88671875 0.84375 C24.22996216 0.27817383 24.22996216 0.27817383 25.6003418 -0.29882812 C28.28394258 -1.15579756 30.38988098 -1.28373016 33.1875 -1.125 C33.83745297 0.28978135 34.48228722 1.70691487 35.125 3.125 C35.66447266 4.30835938 35.66447266 4.30835938 36.21484375 5.515625 C37.08783279 7.63323698 37.70088508 9.64169362 38.1875 11.875 C39.15171875 11.441875 40.1159375 11.00875 41.109375 10.5625 C42.38524701 9.99961529 43.66129817 9.43713652 44.9375 8.875 C45.57171875 8.58882812 46.2059375 8.30265625 46.859375 8.0078125 C50.27167104 6.51493298 52.39531917 5.875 56.1875 5.875 C56.52370361 6.78451416 56.85990723 7.69402832 57.20629883 8.63110352 C66.26945854 33.0727766 75.44145342 57.19378604 90.1875 78.875 C90.58791504 79.47070801 90.98833008 80.06641602 91.40087891 80.68017578 C102.43401044 96.99214754 115.00875083 111.54485113 131.1875 122.875 C132.5251301 123.86924519 133.86014479 124.86707841 135.1875 125.875 C133.87290518 128.75087226 132.43343563 130.91957634 130.28125 133.23046875 C129.70802002 133.84801025 129.13479004 134.46555176 128.54418945 135.10180664 C127.62512817 136.07234985 127.62512817 136.07234985 126.6875 137.0625 C126.05094482 137.73595459 125.41438965 138.40940918 124.75854492 139.10327148 C99.93680056 165.1468359 67.545367 183.16492315 35.4375 198.75 C34.75268555 199.0900708 34.06787109 199.4301416 33.36230469 199.78051758 C28.76323019 201.94655228 28.76323019 201.94655228 26.15039062 201.62182617 C22.67001444 200.29763827 20.68930567 197.15442689 18.4375 194.3125 C17.8811084 193.61938721 17.3247168 192.92627441 16.75146484 192.2121582 C8.91164216 182.23390795 2.06254447 171.52887455 -4.8125 160.875 C-5.4410791 159.90626953 -6.0696582 158.93753906 -6.71728516 157.93945312 C-22.50503504 133.42436545 -52.53770948 80.98416923 -49.8125 50.875 C-46.55142958 48.18941259 -42.82363772 47.08766954 -38.8125 45.875 C-39.26695964 44.45708592 -39.72624944 43.04071954 -40.1875 41.625 C-40.44273437 40.83609375 -40.69796875 40.0471875 -40.9609375 39.234375 C-41.74590522 36.87873091 -41.74590522 36.87873091 -42.9140625 34.828125 C-43.8125 32.875 -43.8125 32.875 -43.8125 28.875 C-40.1482646 27.30385366 -36.48206379 25.73739884 -32.81396484 24.17529297 C-31.56601727 23.64305615 -30.3186174 23.10953322 -29.07177734 22.57470703 C-27.28106372 21.80685131 -25.48821657 21.04397715 -23.6953125 20.28125 C-22.61652832 19.82041016 -21.53774414 19.35957031 -20.42626953 18.88476562 C-17.8125 17.875 -17.8125 17.875 -15.8125 17.875 C-16.3075 17.00875 -16.8025 16.1425 -17.3125 15.25 C-18.90507429 11.66670785 -19.30526851 9.73501998 -18.8125 5.875 C-15.25291058 -1.95609673 -7.57213863 -3.02885545 0 0 Z " fill="#FDFEFE" transform="translate(422.8125,218.125)"/>
<path d="M0 0 C1.53333984 0.00966797 1.53333984 0.00966797 3.09765625 0.01953125 C5.55886346 0.16510472 7.57087195 0.57266467 9.9375 1.1875 C11.35284778 1.25206879 12.77087689 1.27361039 14.1875 1.25 C15.425 1.229375 16.6625 1.20875 17.9375 1.1875 C18.4325 2.6725 18.4325 2.6725 18.9375 4.1875 C20.05125 4.084375 21.165 3.98125 22.3125 3.875 C28.74911285 3.90917671 34.08595004 6.7521526 38.91796875 10.87890625 C46.42617329 18.81804527 52.13146868 30.31835565 52.24389648 41.30957031 C52.25988388 42.49810608 52.27587128 43.68664185 52.29234314 44.91119385 C52.29770584 46.18315613 52.30306854 47.45511841 52.30859375 48.765625 C52.31757582 50.10072929 52.32669791 51.43583264 52.33595276 52.77093506 C52.35239701 55.56492546 52.36013416 58.35879673 52.36303711 61.15283203 C52.3684085 64.70798358 52.40605409 68.2619922 52.45178127 71.81682205 C52.48174058 74.57434018 52.48876474 77.33158968 52.48976326 80.08925629 C52.49593725 82.02895733 52.52530905 83.96854075 52.55528259 85.90802002 C52.5026401 96.31178234 49.68690907 103.54356535 42.8125 111.375 C40.46580487 114.17348878 38.54626739 116.57785409 37.25 120 C35.75406462 123.63298593 33.84559283 125.59379558 30.9375 128.1875 C31.27974609 129.05761719 31.27974609 129.05761719 31.62890625 129.9453125 C34.06122709 136.55511711 34.06122709 136.55511711 33.375 140.0625 C32.87851958 143.60878872 33.45192042 144.96690091 34.75 148.25 C39.5318423 160.80233605 39.5318423 160.80233605 38.9375 167.1875 C36.48271515 170.93182373 33.58246932 173.60870087 29.9375 176.1875 C29.6075 176.1875 29.2775 176.1875 28.9375 176.1875 C28.83953125 175.03894531 28.7415625 173.89039063 28.640625 172.70703125 C27.82091117 163.93817568 26.63199425 155.94676804 23.7421875 147.59375 C22.9375 145.1875 22.9375 145.1875 22.9375 143.1875 C22.174375 143.14625 21.41125 143.105 20.625 143.0625 C17.9375 142.1875 17.9375 142.1875 16.125 139.25 C14.9375 136.1875 14.9375 136.1875 14.9375 134.1875 C14.34469238 134.19910156 13.75188477 134.21070313 13.14111328 134.22265625 C6.63602559 134.29357019 0.27943226 133.85962498 -6.1875 133.1875 C-7.14398437 133.09210938 -8.10046875 132.99671875 -9.0859375 132.8984375 C-11.41193754 132.6658375 -13.73738959 132.42880321 -16.0625 132.1875 C-5.6319004 152.34847044 -5.6319004 152.34847044 4.91552734 172.44848633 C5.28887207 173.15513428 5.6622168 173.86178223 6.046875 174.58984375 C6.36624023 175.19304443 6.68560547 175.79624512 7.01464844 176.41772461 C8.01178017 178.32994893 8.97805668 180.25612891 9.9375 182.1875 C-27.224036 165.2187621 -48.61037807 111.72180397 -61.8671875 76.421875 C-65.0625 67.72523404 -65.0625 67.72523404 -65.0625 65.1875 C-66.02671875 65.53683594 -66.9909375 65.88617188 -67.984375 66.24609375 C-69.26038003 66.70583086 -70.53642374 67.16546063 -71.8125 67.625 C-72.44671875 67.85509766 -73.0809375 68.08519531 -73.734375 68.32226562 C-76.81662076 69.42994769 -79.86086438 70.48411036 -83.0625 71.1875 C-84.625 68.375 -84.625 68.375 -86.0625 65.1875 C-85.0625 62.1875 -85.0625 62.1875 -83.48022461 61.2043457 C-82.81514893 60.92679443 -82.15007324 60.64924316 -81.46484375 60.36328125 C-80.74619141 60.05712891 -80.02753906 59.75097656 -79.28710938 59.43554688 C-78.53236328 59.12681641 -77.77761719 58.81808594 -77 58.5 C-76.24138672 58.17966797 -75.48277344 57.85933594 -74.70117188 57.52929688 C-72.82567458 56.73899298 -70.9445877 55.96197803 -69.0625 55.1875 C-69.08328613 54.54321045 -69.10407227 53.8989209 -69.12548828 53.23510742 C-69.45783698 40.92119575 -67.64838581 28.55392088 -59.0625 19.1875 C-57.41555515 17.50134218 -55.75123879 15.83179829 -54.0625 14.1875 C-53.4025 13.5275 -52.7425 12.8675 -52.0625 12.1875 C-49.03308476 11.35495567 -45.98280588 10.71976431 -42.91015625 10.06640625 C-39.97140584 9.15938452 -39.05699903 8.40491363 -37.0625 6.1875 C-32.70660084 4.62595125 -28.67862384 3.46943629 -24.0625 4.1875 C-20.84816527 7.48870865 -19.15957194 9.90129679 -18.8125 14.5 C-19.20795455 20.33295455 -19.20795455 20.33295455 -22.0625 23.1875 C-28.0212664 25.0477978 -33.86997286 25.1875 -40.0625 25.1875 C-41.77575061 25.53935242 -43.48400401 25.91610476 -45.1875 26.3125 C-49.11318373 27.17423545 -51.47989911 27.33706054 -55.0625 25.1875 C-59.89091 31.947274 -61.35162379 37.9777957 -62.1875 46.0625 C-62.27386719 46.84625 -62.36023438 47.63 -62.44921875 48.4375 C-62.6595149 50.35353159 -62.86182744 52.2704366 -63.0625 54.1875 C-62.134375 54.455625 -61.20625 54.72375 -60.25 55 C-55.14171938 56.90308494 -53.59596294 59.74276493 -51.1640625 64.5078125 C-50.60799316 65.58957764 -50.05192383 66.67134277 -49.47900391 67.78588867 C-48.88780762 68.94967041 -48.29661133 70.11345215 -47.6875 71.3125 C-47.07141433 72.51504435 -46.45470723 73.71727051 -45.83740234 74.91918945 C-44.55738602 77.41230004 -43.2799017 79.90668483 -42.00390625 82.40185547 C-38.9282578 88.40837731 -35.80565998 94.39046775 -32.6875 100.375 C-31.59622966 102.47259148 -30.50507179 104.57024148 -29.4140625 106.66796875 C-28.63023247 108.17449173 -27.84638848 109.68100744 -27.0625 111.1875 C-26.4025 111.1875 -25.7425 111.1875 -25.0625 111.1875 C-20.2441152 106.10313218 -16.36628573 100.81088398 -14.0625 94.1875 C-14.79855469 94.23390625 -15.53460937 94.2803125 -16.29296875 94.328125 C-24.22891176 94.62166054 -24.22891176 94.62166054 -28.0625 92.625 C-33.35433367 86.17557771 -33.70999741 80.28386925 -33.546875 72.0625 C-32.66495418 65.00713346 -29.8970692 58.75744961 -24.59375 53.94921875 C-21.16124862 51.56024017 -18.27030307 50.30373765 -14.0625 50.1875 C-8.78032859 51.65423725 -4.92931495 54.48592349 -2.0625 59.1875 C-1.3125 62 -1.3125 62 -1.0625 64.1875 C-0.4025 63.8575 0.2575 63.5275 0.9375 63.1875 C3.88577837 62.78546204 6.01895963 62.63807285 8.62890625 64.19921875 C12.17841641 67.04737991 13.69712548 69.0619025 14.2109375 73.60546875 C14.42964815 79.56954005 13.97920768 83.69216474 10.43359375 88.59375 C8.19744107 90.97586565 6.01103954 92.14118867 2.9375 93.1875 C1.6175 93.1875 0.2975 93.1875 -1.0625 93.1875 C-1.16175781 94.05503906 -1.26101563 94.92257813 -1.36328125 95.81640625 C-3.14047213 104.38465054 -9.19901346 111.89497786 -15.0625 118.1875 C-9.30168159 119.4857126 -3.97510345 120.44456972 1.9375 120.1875 C2.2675 119.5275 2.5975 118.8675 2.9375 118.1875 C4.61903936 117.76024094 6.30468727 117.34484938 8.00439453 116.99682617 C18.80026735 114.78569818 30.98794195 110.45547519 37.77734375 101.1953125 C49.35200324 81.16374691 50.07491965 58.27589846 44.9375 36.1875 C42.17076553 26.95491722 37.61509114 17.38270933 28.8125 12.625 C25.77733202 11.31999587 23.27172679 10.77072165 19.9375 11.1875 C19.6075 11.8475 19.2775 12.5075 18.9375 13.1875 C16.67792735 14.03207608 14.388198 14.65640506 12.06640625 15.30859375 C9.5949796 16.09741866 9.5949796 16.09741866 7.9375 19.1875 C3.32628625 20.91209394 -2.1974825 21.85091148 -7.0625 21.1875 C-9.76240662 19.38756226 -11.6043865 18.103727 -13.0625 15.1875 C-13.23046875 13.1640625 -13.23046875 13.1640625 -13.25 10.8125 C-13.26417969 10.04164063 -13.27835938 9.27078125 -13.29296875 8.4765625 C-13.02703415 5.83524601 -12.60087335 4.3587777 -11.0625 2.1875 C-7.36752031 0.15044163 -4.17019084 -0.05799254 0 0 Z " fill="#64ACFF" transform="translate(544.0625,158.8125)"/>
<path d="M0 0 C1.51075416 3.91260327 3.00671908 7.83069813 4.5 11.75 C5.14388672 13.41675781 5.14388672 13.41675781 5.80078125 15.1171875 C6.20683594 16.18710937 6.61289062 17.25703125 7.03125 18.359375 C7.40830078 19.34389648 7.78535156 20.32841797 8.17382812 21.34277344 C9 24 9 24 9 28 C14.94 28 20.88 28 27 28 C27 28.66 27 29.32 27 30 C21.72 30 16.44 30 11 30 C11.48210937 31.36253906 11.96421875 32.72507812 12.4609375 34.12890625 C13.09906636 35.94006611 13.73708116 37.75126616 14.375 39.5625 C14.69210937 40.45775391 15.00921875 41.35300781 15.3359375 42.27539062 C15.6453125 43.15517578 15.9546875 44.03496094 16.2734375 44.94140625 C16.69761963 46.14325562 16.69761963 46.14325562 17.13037109 47.36938477 C18.18316381 50.55406796 19.09512697 53.77053935 20 57 C-28.32229604 59.1858256 -28.32229604 59.1858256 -45.3125 59.3125 C-46.37509033 59.32990234 -47.43768066 59.34730469 -48.5324707 59.36523438 C-49.48726318 59.36458984 -50.44205566 59.36394531 -51.42578125 59.36328125 C-52.22411377 59.36626221 -53.02244629 59.36924316 -53.8449707 59.37231445 C-56.74559049 58.87118778 -57.9886114 58.16783301 -60 56 C-61.46960021 50.46703275 -60.7224651 45.68004052 -59.671875 40.1796875 C-59.52220276 39.35800079 -59.37253052 38.53631409 -59.21832275 37.68972778 C-58.90079248 35.96255926 -58.57776079 34.23639398 -58.24951172 32.51123047 C-57.7506912 29.87864789 -57.27460032 27.24265241 -56.80078125 24.60546875 C-56.48833003 22.92162378 -56.17457215 21.23802063 -55.859375 19.5546875 C-55.71860535 18.77124969 -55.57783569 17.98781189 -55.43280029 17.18063354 C-54.3458091 11.57797168 -52.85225729 7.66703156 -48.5 3.75 C-45.19296846 2.09648423 -43.56843668 1.70030161 -40 1.42578125 C-38.53723633 1.31242432 -38.53723633 1.31242432 -37.04492188 1.19677734 C-32.19841385 0.88357293 -27.35244564 0.63722954 -22.5 0.4375 C-21.54480469 0.39431641 -20.58960938 0.35113281 -19.60546875 0.30664062 C-13.06674259 0.02792632 -6.54424258 -0.05027894 0 0 Z " fill="#8BC0FE" transform="translate(366,357)"/>
<path d="M0 0 C0 0.99 0 1.98 0 3 C-0.33 3.33 -0.66 3.66 -1 4 C-2.59034014 12.81915893 0.60817485 19.70467592 4.07421875 27.55078125 C5.92325022 31.73687173 7.46576038 35.98175859 8.9375 40.3125 C11.3746596 47.39600761 14.09002258 54.34025578 16.90039062 61.28320312 C19.66725839 68.12976249 22.31332706 75.0167152 24.92480469 81.92382812 C27.43651316 88.5547385 30.02220163 95.15439005 32.625 101.75 C35.51990187 109.09398621 38.26123437 116.46570646 40.83251953 123.9284668 C42.80867645 129.6022359 45.06711674 135.13521419 47.3840332 140.67700195 C49.44132851 145.60936029 51.41916083 150.56481461 53.3125 155.5625 C53.55484375 156.19293213 53.7971875 156.82336426 54.046875 157.47290039 C55.71804898 161.92877423 56.91178434 166.37636071 58 171 C56.02 171 54.04 171 52 171 C49.69 165.06 47.38 159.12 45 153 C42.31182129 153.13631836 42.31182129 153.13631836 39.56933594 153.27539062 C33.51885007 153.58052937 27.46806476 153.87904126 21.41704941 154.17345428 C17.76319337 154.3514593 14.10948906 154.53178739 10.45605469 154.71826172 C-4.6420811 155.48678925 -19.74139207 156.1564095 -34.859375 156.34375 C-36.03099182 156.37158569 -37.20260864 156.39942139 -38.409729 156.42810059 C-39.48591492 156.43313599 -40.56210083 156.43817139 -41.67089844 156.44335938 C-43.07683258 156.46045959 -43.07683258 156.46045959 -44.51116943 156.47790527 C-47.72447171 155.86088693 -48.92487733 154.45525664 -51 152 C-50.505 151.01 -50.505 151.01 -50 150 C-49.67 150.33 -49.34 150.66 -49 151 C-47.25884346 151.10044769 -45.51358167 151.13081718 -43.76953125 151.1328125 C-42.11727539 151.13571289 -42.11727539 151.13571289 -40.43164062 151.13867188 C-39.23732422 151.13416016 -38.04300781 151.12964844 -36.8125 151.125 C-35.58595703 151.12306641 -34.35941406 151.12113281 -33.09570312 151.11914062 C-24.84628273 151.08061194 -16.63684738 150.80765696 -8.40112305 150.3581543 C3.39011676 149.75727852 15.19737595 149.9120419 27 150 C26.60167969 148.9378125 26.20335937 147.875625 25.79296875 146.78125 C22.60546875 138.28125 22.60546875 138.28125 21.81005859 136.1484375 C21.26069759 134.69142217 20.70075993 133.23835918 20.13134766 131.7890625 C18 126.31597222 18 126.31597222 18 123 C23.28 123 28.56 123 34 123 C34 122.34 34 121.68 34 121 C28.06 121 22.12 121 16 121 C14.49627347 116.70960566 12.99685773 112.41779019 11.5 108.125 C10.85611328 106.29001953 10.85611328 106.29001953 10.19921875 104.41796875 C9.79316406 103.25136719 9.38710938 102.08476562 8.96875 100.8828125 C8.40317383 99.26463623 8.40317383 99.26463623 7.82617188 97.61376953 C7 95 7 95 7 93 C7.83144531 92.93941406 8.66289062 92.87882812 9.51953125 92.81640625 C10.60621094 92.73261719 11.69289063 92.64882813 12.8125 92.5625 C13.89144531 92.48128906 14.97039062 92.40007812 16.08203125 92.31640625 C19.05989905 92.09787539 19.05989905 92.09787539 22 91 C21.66677734 90.13197754 21.33355469 89.26395508 20.99023438 88.36962891 C19.75759776 85.15399892 18.5279376 81.93726394 17.30029297 78.71972656 C16.7679579 77.32636632 16.23443423 75.9334596 15.69970703 74.54101562 C14.93210244 72.54154094 14.16876212 70.54048383 13.40625 68.5390625 C12.94541016 67.33459473 12.48457031 66.13012695 12.00976562 64.88916016 C11 62 11 62 11 60 C9.72125 60.144375 8.4425 60.28875 7.125 60.4375 C5.41669151 60.62522621 3.70835675 60.81271348 2 61 C0.74123047 61.14308594 0.74123047 61.14308594 -0.54296875 61.2890625 C-11.41070075 62.46850628 -21.16475593 62.707353 -30.5 56.1875 C-35.01679359 52.44753084 -38.22343433 47.90220286 -41.46289062 43.06323242 C-44.94208913 37.86823515 -48.8543438 33.62101733 -54 30 C-41.26394939 24.2562909 -26.14791699 24.0035354 -12.95703125 28.7109375 C-8.11687257 30.8209142 -3.52308017 33.28071332 1 36 C0.50628906 34.78183594 0.01257813 33.56367188 -0.49609375 32.30859375 C-1.14363179 30.68505636 -1.79074472 29.06134937 -2.4375 27.4375 C-2.76298828 26.63763672 -3.08847656 25.83777344 -3.42382812 25.01367188 C-5.80818469 18.99132796 -7.87555794 13.7188378 -5.8125 7.3125 C-4.1413104 4.25825693 -2.61812288 2.25700248 0 0 Z " fill="#034EA4" transform="translate(359,264)"/>
<path d="M0 0 C3.21433473 3.30120865 4.90292806 5.71379679 5.25 10.3125 C4.85454545 16.14545455 4.85454545 16.14545455 2 19 C-3.9587664 20.8602978 -9.80747286 21 -16 21 C-17.71325061 21.35185242 -19.42150401 21.72860476 -21.125 22.125 C-25.05068373 22.98673545 -27.41739911 23.14956054 -31 21 C-35.82841 27.759774 -37.28912379 33.7902957 -38.125 41.875 C-38.21136719 42.65875 -38.29773438 43.4425 -38.38671875 44.25 C-38.5970149 46.16603159 -38.79932744 48.0829366 -39 50 C-38.071875 50.268125 -37.14375 50.53625 -36.1875 50.8125 C-31.10765605 52.70499088 -29.555367 55.51221637 -27.13671875 60.25 C-26.5864502 61.32016357 -26.03618164 62.39032715 -25.46923828 63.49291992 C-24.58727783 65.22892456 -24.58727783 65.22892456 -23.6875 67 C-23.06813725 68.20904352 -22.44817308 69.41777911 -21.82763672 70.6262207 C-20.53405383 73.14632056 -19.24309726 75.66774204 -17.95361328 78.18994141 C-16.06570307 81.87775256 -14.15920252 85.55567805 -12.24609375 89.23046875 C-11.34213867 90.96719849 -11.34213867 90.96719849 -10.41992188 92.73901367 C-9.82759766 93.87701416 -9.23527344 95.01501465 -8.625 96.1875 C-1.9226057 109.08300208 -1.9226057 109.08300208 1.24194336 115.5234375 C4.05998272 121.21992573 6.97709899 126.79606753 10.13671875 132.30859375 C15.1830446 141.19982042 19.85534807 150.26933971 24.5 159.375 C25.31741947 160.9715021 26.1351267 162.5678569 26.953125 164.1640625 C32.36788391 174.73576783 32.36788391 174.73576783 34 178 C-3.161536 161.0312621 -24.54787807 107.53430397 -37.8046875 72.234375 C-41 63.53773404 -41 63.53773404 -41 61 C-41.96421875 61.34933594 -42.9284375 61.69867188 -43.921875 62.05859375 C-45.19788003 62.51833086 -46.47392374 62.97796063 -47.75 63.4375 C-48.38421875 63.66759766 -49.0184375 63.89769531 -49.671875 64.13476562 C-52.75412076 65.24244769 -55.79836438 66.29661036 -59 67 C-60.5625 64.1875 -60.5625 64.1875 -62 61 C-61 58 -61 58 -59.41772461 57.0168457 C-58.75264893 56.73929443 -58.08757324 56.46174316 -57.40234375 56.17578125 C-56.68369141 55.86962891 -55.96503906 55.56347656 -55.22460938 55.24804688 C-54.46986328 54.93931641 -53.71511719 54.63058594 -52.9375 54.3125 C-52.17888672 53.99216797 -51.42027344 53.67183594 -50.63867188 53.34179688 C-48.76317458 52.55149298 -46.8820877 51.77447803 -45 51 C-45.02078613 50.35571045 -45.04157227 49.7114209 -45.06298828 49.04760742 C-45.39533698 36.73369575 -43.58588581 24.36642088 -35 15 C-33.35305515 13.31384218 -31.68873879 11.64429829 -30 10 C-29.34 9.34 -28.68 8.68 -28 8 C-24.97058476 7.16745567 -21.92030588 6.53226431 -18.84765625 5.87890625 C-15.90890584 4.97188452 -14.99449903 4.21741363 -13 2 C-8.64410084 0.43845125 -4.61612384 -0.71806371 0 0 Z " fill="#2E8EFE" transform="translate(520,163)"/>
<path d="M0 0 C2.68007492 2.29720708 4.27911137 4.92239872 6.1875 7.875 C6.82776123 7.60236328 7.46802246 7.32972656 8.12768555 7.04882812 C11.03963853 5.81497209 13.95716808 4.59488453 16.875 3.375 C17.88240234 2.94574219 18.88980469 2.51648438 19.92773438 2.07421875 C20.90419922 1.66816406 21.88066406 1.26210937 22.88671875 0.84375 C24.22996216 0.27817383 24.22996216 0.27817383 25.6003418 -0.29882812 C28.28394258 -1.15579756 30.38988098 -1.28373016 33.1875 -1.125 C33.53361328 -0.30708984 33.53361328 -0.30708984 33.88671875 0.52734375 C36.06025326 5.55310537 38.47575527 10.25578136 41.33203125 14.9296875 C42.1875 16.875 42.1875 16.875 41.1875 19.875 C38.69418944 21.15430577 36.27435048 22.25954913 33.6875 23.3125 C32.30193422 23.8941762 30.91651862 24.47621022 29.53125 25.05859375 C28.45218384 25.50755005 28.45218384 25.50755005 27.35131836 25.96557617 C17.46483319 30.12073326 7.75410101 34.70459239 -2.00073242 39.15795898 C-6.22001635 41.08369843 -10.44456551 42.99719652 -14.67315674 44.90240479 C-16.87617474 45.90394802 -19.06871761 46.92637341 -21.26123047 47.95068359 C-22.69348385 48.60688431 -24.12593137 49.26266149 -25.55859375 49.91796875 C-26.21432877 50.23051102 -26.87006378 50.54305328 -27.54566956 50.86506653 C-30.39270094 52.15124364 -32.50894029 52.88823002 -35.65258789 52.7512207 C-37.8125 51.875 -37.8125 51.875 -39.625 48.8125 C-40.016875 47.843125 -40.40875 46.87375 -40.8125 45.875 C-40.1525 45.875 -39.4925 45.875 -38.8125 45.875 C-39.26695964 44.45708592 -39.72624944 43.04071954 -40.1875 41.625 C-40.44273437 40.83609375 -40.69796875 40.0471875 -40.9609375 39.234375 C-41.74590522 36.87873091 -41.74590522 36.87873091 -42.9140625 34.828125 C-43.8125 32.875 -43.8125 32.875 -43.8125 28.875 C-40.1482646 27.30385366 -36.48206379 25.73739884 -32.81396484 24.17529297 C-31.56601727 23.64305615 -30.3186174 23.10953322 -29.07177734 22.57470703 C-27.28106372 21.80685131 -25.48821657 21.04397715 -23.6953125 20.28125 C-22.61652832 19.82041016 -21.53774414 19.35957031 -20.42626953 18.88476562 C-17.8125 17.875 -17.8125 17.875 -15.8125 17.875 C-16.3075 17.00875 -16.8025 16.1425 -17.3125 15.25 C-18.90507429 11.66670785 -19.30526851 9.73501998 -18.8125 5.875 C-15.25291058 -1.95609673 -7.57213863 -3.02885545 0 0 Z " fill="#FECC31" transform="translate(422.8125,218.125)"/>
<path d="M0 0 C1.64453125 1.57421875 1.64453125 1.57421875 2.8125 3.6875 C3.21082031 4.37199219 3.60914063 5.05648438 4.01953125 5.76171875 C5.07211852 8.1646371 5.57929742 10.41697663 6 13 C6.60328125 12.62746094 7.2065625 12.25492187 7.828125 11.87109375 C8.62734375 11.39800781 9.4265625 10.92492187 10.25 10.4375 C11.03890625 9.96183594 11.8278125 9.48617188 12.640625 8.99609375 C15 8 15 8 17.109375 8.08984375 C19.64650606 9.31123122 20.5159986 10.74575863 22 13.125 C22.50660156 13.93710937 23.01320313 14.74921875 23.53515625 15.5859375 C24.01855469 16.38257813 24.50195312 17.17921875 25 18 C25.43183594 18.65226562 25.86367188 19.30453125 26.30859375 19.9765625 C27.93457742 22.53087595 28.96129744 24.5936231 29.25 27.625 C27.24753417 31.42968508 23.70806401 33.01504546 20 35 C20.639375 36.051875 21.27875 37.10375 21.9375 38.1875 C23.61754452 41.10828412 24.58996052 43.6171743 25 47 C21.04093876 50.31952058 16.90262306 53.0735539 12.5 55.75 C11.84902344 56.16121094 11.19804687 56.57242188 10.52734375 56.99609375 C4.00163807 60.96425014 4.00163807 60.96425014 0 60 C-2.01953125 58.03125 -2.01953125 58.03125 -3.8125 55.5 C-4.41707031 54.6646875 -5.02164062 53.829375 -5.64453125 52.96875 C-6.09183594 52.3190625 -6.53914063 51.669375 -7 51 C-11.1897833 51.54660163 -11.1897833 51.54660163 -15.0625 53.125 C-17.85932474 54.38808214 -19.12975823 54.06400592 -22 53 C-23.53039192 50.75261344 -24.63356737 48.81312867 -25.75 46.375 C-26.05292969 45.77042969 -26.35585938 45.16585937 -26.66796875 44.54296875 C-28.70217227 40.30278452 -29.54919764 36.61479253 -30 32 C-28.70903219 31.18639005 -27.41720125 30.37414954 -26.125 29.5625 C-25.40570313 29.11003906 -24.68640625 28.65757812 -23.9453125 28.19140625 C-22 27 -22 27 -20 26 C-20.2165625 25.26394531 -20.433125 24.52789062 -20.65625 23.76953125 C-20.9346875 22.79371094 -21.213125 21.81789063 -21.5 20.8125 C-21.7784375 19.84957031 -22.056875 18.88664062 -22.34375 17.89453125 C-23.48611111 12.85590278 -23.48611111 12.85590278 -23 10 C-19.78738383 6.81685737 -16.07242676 4.79366923 -12.0625 2.75 C-11.06347656 2.22921875 -10.06445312 1.7084375 -9.03515625 1.171875 C-5.70740705 -0.11297025 -3.53039217 -0.50786368 0 0 Z " fill="#10B892" transform="translate(460,280)"/>
<path d="M0 0 C1.49821059 3.37097383 2 5.20442119 2 9 C-2.95 11.475 -2.95 11.475 -8 14 C-7.71321697 26.47506181 -4.8456586 37.90209632 -1.77001953 49.94335938 C-1.08577537 52.6595093 -0.43677962 55.37982881 0.19140625 58.109375 C9.25464841 97.05039184 25.73266891 134.43332321 43.29272461 170.20776367 C44.01987671 171.69626831 44.01987671 171.69626831 44.76171875 173.21484375 C45.19444092 174.09261475 45.62716309 174.97038574 46.07299805 175.87475586 C47 178 47 178 47 180 C43.04 180 39.08 180 35 180 C31.12950181 170.50057932 27.27241073 161.01541474 23.9375 151.3125 C21.72881601 144.89017621 19.23958355 138.63275689 16.60522461 132.37426758 C14.26975138 126.77775076 12.24035763 121.1083131 10.26953125 115.375 C8.51934329 110.33742195 6.56882497 105.41458857 4.5 100.5 C1.84666493 94.19688088 -0.50770511 87.84122151 -2.73046875 81.375 C-4.48065671 76.33742195 -6.43117503 71.41458857 -8.5 66.5 C-11.15092026 60.20261737 -13.52003233 53.85729078 -15.71728516 47.38818359 C-17.25235873 42.92916035 -19.0047836 38.62911104 -20.9128418 34.31738281 C-27.03948413 20.35715746 -27.03948413 20.35715746 -25 13 C-21.85445259 7.48463639 -17.0154266 5.90578718 -11.375 3.6875 C-10.50359375 3.32849609 -9.6321875 2.96949219 -8.734375 2.59960938 C-2.33686012 0 -2.33686012 0 0 0 Z " fill="#2D8CFC" transform="translate(382,255)"/>
<path d="M0 0 C2.5712246 2.22036001 3.67387387 4.19767674 4.82421875 7.37890625 C5.13037109 8.21744141 5.43652344 9.05597656 5.75195312 9.91992188 C6.21504883 11.22799805 6.21504883 11.22799805 6.6875 12.5625 C7.00783203 13.43841797 7.32816406 14.31433594 7.65820312 15.21679688 C10 21.70292511 10 21.70292511 10 24 C7.00051609 24.33865141 4.00055074 24.67105073 1 25 C-0.25876953 25.14308594 -0.25876953 25.14308594 -1.54296875 25.2890625 C-12.41070075 26.46850628 -22.16475593 26.707353 -31.5 20.1875 C-36.01679359 16.44753084 -39.22343433 11.90220286 -42.46289062 7.06323242 C-45.94208913 1.86823515 -49.8543438 -2.37898267 -55 -6 C-36.86355794 -14.17917975 -16.41146938 -10.72177877 0 0 Z " fill="#0EB790" transform="translate(360,300)"/>
<path d="M0 0 C3.0104616 2.49092568 4.73814755 5.07344517 5.8125 8.875 C5.874375 9.57625 5.93625 10.2775 6 11 C6.66 10.67 7.32 10.34 8 10 C10.94827837 9.59796204 13.08145963 9.45057285 15.69140625 11.01171875 C19.24091641 13.85987991 20.75962548 15.8744025 21.2734375 20.41796875 C21.49216617 26.38253124 21.03842721 30.50070318 17.5 35.40625 C15.27745345 37.76770571 13.04091918 38.94228898 10 40 C9.01 40 8.02 40 7 40 C7.6347032 33.5260274 7.6347032 33.5260274 9.5625 30.75 C11.85473577 26.36485332 11.70769909 21.84215167 11 17 C9.22876774 14.29898394 9.22876774 14.29898394 7 13 C7.061875 13.94875 7.12375 14.8975 7.1875 15.875 C7.15554046 23.76900629 4.35811656 31.21200589 -1 37 C-4.73486368 40.46808771 -7.5925266 41.29319574 -12.5625 41.5 C-16.07277788 41.35234923 -17.84232306 41.08212341 -21 39.4375 C-26.29183367 32.98807771 -26.64749741 27.09636925 -26.484375 18.875 C-25.60111092 11.80888732 -22.84076329 5.51247786 -17.46484375 0.7578125 C-11.26645265 -3.6625932 -6.58590194 -3.46881759 0 0 Z " fill="#87BCFA" transform="translate(537,212)"/>
<path d="M0 0 C0 15.84 0 31.68 0 48 C-3.01249745 49.50624872 -6.25190393 49.52426307 -9.5625 49.875 C-15.72832879 50.57528566 -21.19200909 51.71828929 -27 54 C-30.42129408 48.61146183 -32.98390019 44.55933462 -32 38 C-29.17028155 26.27473048 -24.97397329 18.78363654 -16.6875 10.25 C-16.15455322 9.69441406 -15.62160645 9.13882812 -15.07250977 8.56640625 C-11.13447143 4.6526512 -5.85038126 0 0 0 Z " fill="#0EB790" transform="translate(596,318)"/>
<path d="M0 0 C1.53333984 0.00966797 1.53333984 0.00966797 3.09765625 0.01953125 C5.55886346 0.16510472 7.57087195 0.57266467 9.9375 1.1875 C11.35284778 1.25206879 12.77087689 1.27361039 14.1875 1.25 C15.425 1.229375 16.6625 1.20875 17.9375 1.1875 C18.2675 2.1775 18.5975 3.1675 18.9375 4.1875 C20.05125 4.084375 21.165 3.98125 22.3125 3.875 C28.74911285 3.90917671 34.08595004 6.7521526 38.91796875 10.87890625 C45.66218275 18.01020538 50.79521403 28.17060045 52.375 37.875 C52.230625 38.638125 52.08625 39.40125 51.9375 40.1875 C49.41015625 41.83203125 49.41015625 41.83203125 46.9375 43.1875 C46.64617188 42.22070312 46.35484375 41.25390625 46.0546875 40.2578125 C42.79667277 29.77550425 39.38828759 19.62207878 29.9375 13.1875 C26.45894054 11.40579881 23.83048768 10.96504356 19.9375 11.1875 C19.6075 11.8475 19.2775 12.5075 18.9375 13.1875 C16.67792735 14.03207608 14.388198 14.65640506 12.06640625 15.30859375 C9.5949796 16.09741866 9.5949796 16.09741866 7.9375 19.1875 C3.32628625 20.91209394 -2.1974825 21.85091148 -7.0625 21.1875 C-9.76240662 19.38756226 -11.6043865 18.103727 -13.0625 15.1875 C-13.23046875 13.1640625 -13.23046875 13.1640625 -13.25 10.8125 C-13.26417969 10.04164063 -13.27835938 9.27078125 -13.29296875 8.4765625 C-13.02703415 5.83524601 -12.60087335 4.3587777 -11.0625 2.1875 C-7.36752031 0.15044163 -4.17019084 -0.05799254 0 0 Z " fill="#8BC0FE" transform="translate(544.0625,158.8125)"/>
<path d="M0 0 C3.16115776 1.36983503 3.9927092 1.9890638 6 5 C6.822396 11.00540338 6.6338691 15.89921884 3.1328125 21.00390625 C1.62245839 23.66525436 0.94302389 26.36692659 0.125 29.3125 C-2.64022072 38.72073145 -7.43967085 45.81487759 -14 53 C-8.34853777 54.17122859 -2.72398793 55.25339288 3 56 C3.66 59.96 4.32 63.92 5 68 C0.64822326 68.09161635 -3.65212311 68.09323889 -8 68 C-8.85335937 68.02707031 -9.70671875 68.05414063 -10.5859375 68.08203125 C-13.36157906 67.90185803 -14.68103048 67.5836865 -17 66 C-20.75715397 61.22871228 -25.0708493 54.47667613 -24.9453125 48.31640625 C-23.78473494 45.47251166 -22.26459334 43.56753971 -20.25 41.25 C-17.54373822 38.01309866 -15.2666431 34.92721794 -13.3125 31.1875 C-11.35812263 27.44926141 -9.07528249 24.91757569 -6 22 C-0.60563605 15.06438921 0.30568322 8.55913011 0 0 Z " fill="#8AC0FF" transform="translate(543,224)"/>
<path d="M0 0 C3.21433473 3.30120865 4.90292806 5.71379679 5.25 10.3125 C4.85454545 16.14545455 4.85454545 16.14545455 2 19 C-3.9587664 20.8602978 -9.80747286 21 -16 21 C-17.71325061 21.35185242 -19.42150401 21.72860476 -21.125 22.125 C-25.05068373 22.98673545 -27.41739911 23.14956054 -31 21 C-35.95340057 27.93476079 -37.31805101 34.0806227 -38.125 42.375 C-38.21136719 43.20644531 -38.29773438 44.03789062 -38.38671875 44.89453125 C-38.59718843 46.92907147 -38.79943314 48.9644597 -39 51 C-40.66611905 51.042721 -42.33382885 51.04063832 -44 51 C-45 50 -45 50 -45.1875 46.1875 C-44.9714285 31.08650267 -40.78354551 20.499768 -30 10 C-29.34 9.34 -28.68 8.68 -28 8 C-24.97058476 7.16745567 -21.92030588 6.53226431 -18.84765625 5.87890625 C-15.90890584 4.97188452 -14.99449903 4.21741363 -13 2 C-8.64410084 0.43845125 -4.61612384 -0.71806371 0 0 Z " fill="#8ABFFD" transform="translate(520,163)"/>
<path d="M0 0 C2.44984756 2.2123981 3.78744255 4.27997676 5.15625 7.2734375 C5.53910156 8.0984375 5.92195312 8.9234375 6.31640625 9.7734375 C6.70699219 10.63195312 7.09757813 11.49046875 7.5 12.375 C8.27881644 14.07143184 9.06000323 15.76677782 9.84375 17.4609375 C10.21137451 18.25636963 10.57899902 19.05180176 10.95776367 19.87133789 C12.03542687 22.16486558 12.03542687 22.16486558 13.76953125 24.83203125 C15.73486434 28.29476097 15.19897116 31.08690044 15 35 C14.34 35 13.68 35 13 35 C12.81074951 35.57580811 12.62149902 36.15161621 12.42651367 36.74487305 C10.38084529 39.97880063 7.46644304 41.33095955 4.17578125 43.08203125 C3.12056023 43.65894463 3.12056023 43.65894463 2.04402161 44.24751282 C-7.14966354 49.23468071 -16.48563458 53.95599107 -25.8125 58.6875 C-29.38255776 60.5018547 -32.95128143 62.31881157 -36.51953125 64.13671875 C-37.36001007 64.56346893 -38.20048889 64.99021912 -39.06643677 65.42990112 C-44.49871432 68.19815677 -49.83986688 71.07666249 -55.1081543 74.14770508 C-55.73246338 74.4289624 -56.35677246 74.71021973 -57 75 C-57.66 74.67 -58.32 74.34 -59 74 C-58.4831665 73.69408936 -57.96633301 73.38817871 -57.43383789 73.07299805 C-34.42963544 59.69647991 -34.42963544 59.69647991 -13 44 C-12.40316406 43.5359375 -11.80632813 43.071875 -11.19140625 42.59375 C-6.12143795 38.52874201 -1.22967367 33.66090023 2 28 C2.06919763 23.18692026 -0.88963805 20.45637703 -4.0625 17.1875 C-4.77116211 16.43436523 -4.77116211 16.43436523 -5.49414062 15.66601562 C-6.65408452 14.43577211 -7.82588815 13.21672935 -9 12 C-7.55575365 8.76138697 -5.74227753 6.38030837 -3.375 3.75 C-2.74335937 3.04359375 -2.11171875 2.3371875 -1.4609375 1.609375 C-0.97882812 1.07828125 -0.49671875 0.5471875 0 0 Z " fill="#2C8CFB" transform="translate(556,347)"/>
<path d="M0 0 C3.875 0.6875 3.875 0.6875 6.3125 2.4375 C9.82024147 7.48864771 9.44417055 13.76331639 8.875 19.6875 C7.18486618 25.9747978 4.41309155 30.25388324 -1.125 33.6875 C-4.25 34.25 -4.25 34.25 -7.125 33.6875 C-10.44079572 31.20065321 -12.04062095 28.66355652 -13.125 24.6875 C-13.78008101 16.82652784 -12.1785829 10.03256708 -7.4375 3.625 C-5.08127333 1.0983729 -3.46334463 0.19348294 0 0 Z " fill="#313842" transform="translate(528.125,214.3125)"/>
<path d="M0 0 C0.79431928 4.21430507 0.95453125 7.8000625 0 12 C-2.21483471 14.62254061 -4.44382648 16.62543244 -7.08325195 18.7824707 C-16.86356933 26.8207541 -23.0243285 38.07298549 -27 50 C-27.66 50 -28.32 50 -29 50 C-31.44701201 46.89417707 -32.54354766 44.2028991 -32.3515625 40.21484375 C-30.36026102 27.66964445 -25.3244881 19.14460627 -16.6875 10.25 C-16.15455322 9.69441406 -15.62160645 9.13882812 -15.07250977 8.56640625 C-11.13447143 4.6526512 -5.85038126 0 0 0 Z " fill="#0EB790" transform="translate(596,318)"/>
<path d="M0 0 C0.495 1.485 0.495 1.485 1 3 C-2.02939009 8.26478681 -6.64535835 11.42565305 -12 14 C-12.66 14 -13.32 14 -14 14 C-13.9175 15.216875 -13.835 16.43375 -13.75 17.6875 C-13.75 20.98918258 -13.98284769 21.97120863 -15.75 24.9375 C-19.59477482 28.46187692 -23.10320246 28.02433641 -28.19189453 28.00016785 C-40.24334622 28.09607701 -48.65871005 31.85187888 -59 37.6875 C-60.50474735 38.50261212 -62.01125998 39.31447396 -63.51953125 40.12304688 C-68.83128725 42.9857992 -74.10192625 45.91712904 -79.34301758 48.90722656 C-80.79164185 49.72465332 -80.79164185 49.72465332 -82.26953125 50.55859375 C-83.08268799 51.0270874 -83.89584473 51.49558105 -84.73364258 51.97827148 C-88.31415414 53.59245234 -91.13947734 53.4370403 -95 53 C-91.87295482 50.49976927 -88.63490588 48.67058129 -85.07421875 46.84765625 C-84.49898972 46.55172577 -83.92376068 46.25579529 -83.33110046 45.95089722 C-81.45158488 44.98477623 -79.56953124 44.02370972 -77.6875 43.0625 C-76.36972998 42.38593504 -75.05218683 41.70892801 -73.73486328 41.03149414 C-71.73357907 40.00235273 -69.73218533 38.97343371 -67.73010254 37.94584656 C-61.93135462 34.96920547 -56.15019382 31.95958349 -50.375 28.9375 C-44.23485987 25.7246487 -38.0876977 22.52637331 -31.92578125 19.35546875 C-30.10573279 18.41732374 -28.28579699 17.47896049 -26.46588135 16.54055786 C-24.74785401 15.65607185 -23.02801142 14.77511454 -21.30810547 13.89428711 C-9.36068646 8.52255893 -9.36068646 8.52255893 0 0 Z " fill="#014DA3" transform="translate(569,382)"/>
<path d="M0 0 C0.1273463 7.79197634 0.21458062 15.58368179 0.2746582 23.37646484 C0.29971759 26.02435332 0.33377435 28.67217322 0.37719727 31.31982422 C0.43822279 35.13786804 0.46629732 38.95499294 0.48828125 42.7734375 C0.51408768 43.94675629 0.5398941 45.12007507 0.56648254 46.32894897 C0.56990988 56.49699394 -2.61044501 63.62576742 -9.0625 71.4375 C-9.71347656 72.24058594 -10.36445312 73.04367187 -11.03515625 73.87109375 C-12.92589913 75.91971178 -14.60112516 77.57612057 -17 79 C-17.99 78.67 -18.98 78.34 -20 78 C-21.67231027 74.65537947 -21.86376437 71.57228266 -21 68 C-19.390625 65.89453125 -19.390625 65.89453125 -17.3125 63.75 C-7.29134106 53.35768702 -3.6397722 35.94283464 -3.6875 21.75 C-3.771747 17.68840757 -4.1466137 13.96455051 -5 10 C-5.44 3.62 -5.44 3.62 -3.625 1.0625 C-2 0 -2 0 0 0 Z " fill="#8BC0FE" transform="translate(596,199)"/>
<path d="M0 0 C1.27026367 1.82250977 1.27026367 1.82250977 2.16796875 4.19140625 C2.50376953 5.05443359 2.83957031 5.91746094 3.18554688 6.80664062 C3.51619141 7.71607422 3.84683594 8.62550781 4.1875 9.5625 C4.52974609 10.44486328 4.87199219 11.32722656 5.22460938 12.23632812 C7.22655852 17.49581781 8.61855371 22.47421483 10 28 C4.06 28 -1.88 28 -8 28 C-9.50372653 23.70960566 -11.00314227 19.41779019 -12.5 15.125 C-12.92925781 13.90167969 -13.35851562 12.67835938 -13.80078125 11.41796875 C-14.20683594 10.25136719 -14.61289062 9.08476562 -15.03125 7.8828125 C-15.40830078 6.80402832 -15.78535156 5.72524414 -16.17382812 4.61376953 C-17 2 -17 2 -17 0 C-15.10507254 -0.19644384 -13.20899097 -0.38177288 -11.3125 -0.5625 C-9.72888672 -0.71912109 -9.72888672 -0.71912109 -8.11328125 -0.87890625 C-5.07305694 -0.99715839 -2.89375359 -0.91229359 0 0 Z " fill="#5E7A99" transform="translate(383,357)"/>
<path d="M0 0 C2.79831724 4.19747587 4.33604163 8.7375334 6.125 13.4375 C6.49753906 14.39205078 6.87007813 15.34660156 7.25390625 16.33007812 C7.60582031 17.25111328 7.95773437 18.17214844 8.3203125 19.12109375 C8.64273926 19.9608374 8.96516602 20.80058105 9.29736328 21.66577148 C10 24 10 24 10 28 C4.39 28 -1.22 28 -7 28 C-16 9 -16 9 -16 2 C-10.72 2 -5.44 2 0 2 C0 1.34 0 0.68 0 0 Z " fill="#5E7A9A" transform="translate(393,385)"/>
<path d="M0 0 C6.30177347 1.65836144 13.66574209 4.81174529 17.6015625 10.1875 C19.38467082 13.77363964 20.81024733 17.42981061 22.1875 21.1875 C22.46013672 21.91130859 22.73277344 22.63511719 23.01367188 23.38085938 C25 28.7324953 25 28.7324953 25 31 C14.605 31.99 14.605 31.99 4 33 C5.03448675 30.41378313 6.07034062 27.82805627 7.125 25.25 C8.2450089 21.08996695 8.14007643 17.27342543 8 13 C6.85660156 12.66226562 5.71320313 12.32453125 4.53515625 11.9765625 C3.04414843 11.52644693 1.55326959 11.07590397 0.0625 10.625 C-0.69224609 10.40328125 -1.44699219 10.1815625 -2.22460938 9.953125 C-4.16847912 9.36037548 -6.08686452 8.68548828 -8 8 C-8.33 7.34 -8.66 6.68 -9 6 C-3.43109483 6.47986031 1.67067568 7.29915181 7 9 C6.4946875 8.43410156 5.989375 7.86820312 5.46875 7.28515625 C4.8190625 6.55167969 4.169375 5.81820313 3.5 5.0625 C2.8503125 4.33160156 2.200625 3.60070312 1.53125 2.84765625 C0 1 0 1 0 0 Z " fill="#1F7764" transform="translate(345,293)"/>
<path d="M0 0 C3.21602818 2.36970497 5.64124592 4.17078395 7 8 C7 8.99 7 9.98 7 11 C7.66 10.67 8.32 10.34 9 10 C11.94827837 9.59796204 14.08145963 9.45057285 16.69140625 11.01171875 C20.24091641 13.85987991 21.75962548 15.8744025 22.2734375 20.41796875 C22.49216617 26.38253124 22.03842721 30.50070318 18.5 35.40625 C16.27745345 37.76770571 14.04091918 38.94228898 11 40 C10.01 40 9.02 40 8 40 C8.6347032 33.5260274 8.6347032 33.5260274 10.5625 30.75 C12.85473577 26.36485332 12.70769909 21.84215167 12 17 C10.22876774 14.29898394 10.22876774 14.29898394 8 13 C8.061875 13.94875 8.12375 14.8975 8.1875 15.875 C8.15575814 23.7152393 5.39588892 31.28670585 0 37 C-1.9710001 38.71779858 -3.6454475 39.77153783 -6 41 C-6.99 40.67 -7.98 40.34 -9 40 C-8.0925 39.443125 -7.185 38.88625 -6.25 38.3125 C-0.70672679 34.36824791 2.58831424 29.70296835 4 23 C4.74280645 14.65908903 5.10695445 8.89691671 0 2 C0 1.34 0 0.68 0 0 Z " fill="#65ACFF" transform="translate(536,212)"/>
<path d="M0 0 C7.47357496 0.2042617 13.65999763 3.62971116 18.75 9 C24.40212019 16.04176677 28.98001848 25.17189923 30.4375 34.125 C30.293125 34.888125 30.14875 35.65125 30 36.4375 C27.47265625 38.08203125 27.47265625 38.08203125 25 39.4375 C24.70867188 38.47070312 24.41734375 37.50390625 24.1171875 36.5078125 C20.85917277 26.02550425 17.45078759 15.87207878 8 9.4375 C4.93134667 7.86383162 2.78065513 7.41519374 -0.6875 7.0625 C-4 6.4375 -4 6.4375 -5.4375 4.375 C-5.7159375 3.4159375 -5.7159375 3.4159375 -6 2.4375 C-3.68449829 0.12199829 -3.15282885 0.09571088 0 0 Z " fill="#CECDDC" transform="translate(566,162.5625)"/>
<path d="M0 0 C7.77799257 19.80122536 7.77799257 19.80122536 7 27 C4.53518337 30.7361431 1.64439719 33.42160564 -2 36 C-2.33 36 -2.66 36 -3 36 C-3.14695312 34.27716797 -3.14695312 34.27716797 -3.296875 32.51953125 C-4.11658883 23.75067568 -5.30550575 15.75926804 -8.1953125 7.40625 C-9 5 -9 5 -9 3 C-2.25 0 -2.25 0 0 0 Z " fill="#89C0FD" transform="translate(576,299)"/>
<path d="M0 0 C0.44961075 5.73253708 -0.3359314 7.70780535 -4 12 C-6.56360214 17.85142188 -7.6251877 23.16495864 -8.1875 29.5 C-8.26935547 30.32242188 -8.35121094 31.14484375 -8.43554688 31.9921875 C-8.63338638 33.99385775 -8.81808724 35.99681953 -9 38 C-10.66611905 38.042721 -12.33382885 38.04063832 -14 38 C-15 37 -15 37 -15.1875 33.1875 C-15.02565474 21.8763147 -12.97645637 10.49106646 -5 2 C-2 0 -2 0 0 0 Z " fill="#CECDDC" transform="translate(490,176)"/>
<path d="M0 0 C0.99 0 1.98 0 3 0 C3.495 8.415 3.495 8.415 4 17 C4.66 14.69 5.32 12.38 6 10 C14.58 10 23.16 10 32 10 C32 10.66 32 11.32 32 12 C30.9378125 12.04898437 29.875625 12.09796875 28.78125 12.1484375 C24.51483206 12.36223743 20.258267 12.66277532 16 13 C15.09636719 13.06445312 14.19273437 13.12890625 13.26171875 13.1953125 C10.92275488 13.43655103 10.92275488 13.43655103 8 15 C6.44961286 17.90285251 5.72078597 20.80709684 5 24 C4.67 24.66 4.34 25.32 4 26 C3.34 26 2.68 26 2 26 C1.01857619 21.75266168 0.69079621 17.52675467 0.4375 13.1875 C0.39431641 12.49462891 0.35113281 11.80175781 0.30664062 11.08789062 C0.20138547 9.39211314 0.10027137 7.69607948 0 6 C-0.17748779 6.56589844 -0.35497559 7.13179688 -0.5378418 7.71484375 C-1.73219227 10.44068149 -2.74925371 12.02348017 -5 14 C-10.2510523 15.192824 -15.46172851 15.07513621 -20.8125 15 C-22.28322753 15.00809604 -23.75393997 15.01977713 -25.22460938 15.03515625 C-28.81716611 15.06493332 -32.40751963 15.04565503 -36 15 C-36 14.34 -36 13.68 -36 13 C-29.46313616 12.01168844 -23.10422885 11.88116471 -16.5 11.9375 C-15.48679687 11.94201172 -14.47359375 11.94652344 -13.4296875 11.95117188 C-10.95306173 11.96285407 -8.47656343 11.97923418 -6 12 C-5.57074219 10.88044922 -5.57074219 10.88044922 -5.1328125 9.73828125 C-3.70229585 6.28037721 -1.89626146 3.22364449 0 0 Z " fill="#EFF5FD" transform="translate(361,375)"/>
<path d="M0 0 C0.99 0.33 1.98 0.66 3 1 C3.061875 1.78375 3.12375 2.5675 3.1875 3.375 C3.455625 4.24125 3.72375 5.1075 4 6 C6.34754398 7.33903214 6.34754398 7.33903214 9 8 C9.99 8.33 10.98 8.66 12 9 C11.67 9.99 11.34 10.98 11 12 C10.05125 12.433125 9.1025 12.86625 8.125 13.3125 C4.37011461 15.34013811 3.55569104 17.1107724 2 21 C1.01 20.67 0.02 20.34 -1 20 C-1.2475 19.236875 -1.495 18.47375 -1.75 17.6875 C-3.58593958 13.7402299 -6.15582557 12.92208722 -10 11 C-8.39435443 9.23378987 -7.23292301 8.09462497 -5 7.1875 C-2.07902937 5.45317369 -1.32332751 3.04365326 0 0 Z " fill="#FFA52F" transform="translate(447,171)"/>
<path d="M0 0 C-6.96263604 3.21010311 -13.93251654 6.40389923 -20.90869141 9.58447266 C-23.60506135 10.8191554 -26.29378852 12.06865132 -28.98046875 13.32421875 C-30.38250442 13.96681843 -31.78482338 14.6088006 -33.1875 15.25 C-33.81462891 15.54914307 -34.44175781 15.84828613 -35.08789062 16.15649414 C-37.82369229 17.38949426 -39.79452614 18.00998831 -42.8125 17.86328125 C-45 17 -45 17 -46.8125 13.9375 C-47.204375 12.968125 -47.59625 11.99875 -48 11 C-47.34 11 -46.68 11 -46 11 C-45.67 10.34 -45.34 9.68 -45 9 C-44.34 10.65 -43.68 12.3 -43 14 C-37.91129747 13.39001032 -33.73584265 11.81758413 -29.08203125 9.8046875 C-27.56581662 9.16521895 -26.04953872 8.52590041 -24.53320312 7.88671875 C-22.16180649 6.87798113 -19.79179586 5.86612771 -17.4230957 4.85107422 C-15.1252523 3.8691628 -12.82276066 2.89888293 -10.51953125 1.9296875 C-9.81012894 1.62143036 -9.10072662 1.31317322 -8.36982727 0.99557495 C-3.33946092 -1.11315364 -3.33946092 -1.11315364 0 0 Z " fill="#A9A597" transform="translate(430,253)"/>
<path d="M0 0 C0 0.99 0 1.98 0 3 C-2.08984375 5.0234375 -2.08984375 5.0234375 -4.9375 7.375 C-15.01474455 16.10480099 -21.78785177 27.3635553 -26 40 C-26.66 40 -27.32 40 -28 40 C-25.93864031 24.27344685 -14.19621174 10.87851792 -2.0546875 1.51171875 C-1.37664063 1.01285156 -0.69859375 0.51398438 0 0 Z " fill="#09775B" transform="translate(595,328)"/>
<path d="M0 0 C4.60101601 2.86009103 6.06360421 5.68494562 7.49609375 10.7109375 C9.13082504 18.13692615 7.45909288 25.41318137 3.8984375 32.0546875 C1.20025075 36.11067146 -1.67715942 38.74460492 -6 41 C-6.99 40.67 -7.98 40.34 -9 40 C-8.0925 39.443125 -7.185 38.88625 -6.25 38.3125 C-0.70672679 34.36824791 2.58831424 29.70296835 4 23 C4.74280645 14.65908903 5.10695445 8.89691671 0 2 C0 1.34 0 0.68 0 0 Z " fill="#3A95FF" transform="translate(536,212)"/>
<path d="M0 0 C0.66 0 1.32 0 2 0 C2.061875 0.61875 2.12375 1.2375 2.1875 1.875 C2.828919 4.27761141 2.828919 4.27761141 5.5625 5.25 C6.366875 5.4975 7.17125 5.745 8 6 C8 6.66 8 7.32 8 8 C7.195625 8.474375 6.39125 8.94875 5.5625 9.4375 C2.7081924 10.79983672 2.7081924 10.79983672 2 14 C1.01 13.67 0.02 13.34 -1 13 C-1.6875 10.9375 -1.6875 10.9375 -2 9 C-3.65 8.67 -5.3 8.34 -7 8 C-7 7.34 -7 6.68 -7 6 C-5.33720673 4.9935725 -3.67016516 3.99414593 -2 3 C-1.34 2.01 -0.68 1.02 0 0 Z " fill="#0266DA" transform="translate(306,331)"/>
<path d="M0 0 C-0.23934903 3.51045242 -0.65880734 5.55291996 -2.8125 8.375 C-7.72505377 10.87943918 -12.58873924 10.3106944 -18 10 C-15.3137382 6.87084199 -12.04608071 5.2357324 -8.4375 3.3125 C-7.28121094 2.68988281 -6.12492188 2.06726563 -4.93359375 1.42578125 C-2 0 -2 0 0 0 Z " fill="#82B9F8" transform="translate(555,396)"/>
<path d="M0 0 C10.22493761 0.51991208 20.5953347 4.07853127 29 10 C29.9375 12.25 29.9375 12.25 30 14 C27.62470275 12.82694165 25.27593752 11.61721538 22.93359375 10.37890625 C16.35911258 6.96311436 10.30962452 4.19289643 3.01171875 2.60546875 C2.34785156 2.40566406 1.68398438 2.20585937 1 2 C0.67 1.34 0.34 0.68 0 0 Z " fill="#0A7159" transform="translate(336,299)"/>
<path d="M0 0 C0.66 0.33 1.32 0.66 2 1 C2 1.66 2 2.32 2 3 C-1.78488085 5.03374027 -5.57891335 7.04976448 -9.375 9.0625 C-10.45523437 9.64322266 -11.53546875 10.22394531 -12.6484375 10.82226562 C-13.6796875 11.36689453 -14.7109375 11.91152344 -15.7734375 12.47265625 C-16.72653809 12.98062744 -17.67963867 13.48859863 -18.66162109 14.01196289 C-19.43328613 14.33801514 -20.20495117 14.66406738 -21 15 C-21.66 14.67 -22.32 14.34 -23 14 C-22.40985107 13.64695801 -21.81970215 13.29391602 -21.21166992 12.93017578 C-18.53648349 11.32922293 -15.86198485 9.72712458 -13.1875 8.125 C-12.25873047 7.56941406 -11.32996094 7.01382812 -10.37304688 6.44140625 C-9.48037109 5.90644531 -8.58769531 5.37148438 -7.66796875 4.8203125 C-6.84578857 4.32805176 -6.0236084 3.83579102 -5.17651367 3.32861328 C-3.42552114 2.25975166 -1.70690814 1.13793876 0 0 Z " fill="#2984EE" transform="translate(520,407)"/>
<path d="M0 0 C2 1.375 2 1.375 4 4 C4.35791096 7.3580469 4.23115823 10.63536357 4 14 C1 13 1 13 -0.1875 11.375 C-1.28584189 8.16446216 -1.18713202 5.36837637 -1 2 C-0.67 1.34 -0.34 0.68 0 0 Z " fill="#303553" transform="translate(518,165)"/>
<path d="M0 0 C0.66 0.33 1.32 0.66 2 1 C1.67 1.33 1.34 1.66 1 2 C3.97 2.495 3.97 2.495 7 3 C7 3.33 7 3.66 7 4 C3.04 4 -0.92 4 -5 4 C-2 1 -2 1 0 0 Z " fill="#6EA8EB" transform="translate(542,402)"/>
<path d="M0 0 C0.66 0 1.32 0 2 0 C3.49821059 3.37097383 4 5.20442119 4 9 C3.34 9 2.68 9 2 9 C0.50178941 5.62902617 0 3.79557881 0 0 Z " fill="#3D6994" transform="translate(380,255)"/>
<path d="M0 0 C0.33 0.66 0.66 1.32 1 2 C1.66 2 2.32 2 3 2 C2.34 4.64 1.68 7.28 1 10 C0.67 10 0.34 10 0 10 C0 6.7 0 3.4 0 0 Z " fill="#A5CFFF" transform="translate(364,384)"/>
</svg>
